<svg width="25" height="25" viewBox="0 0 25 25" fill="none" xmlns="http://www.w3.org/2000/svg">
<path d="M19.25 4C21.0449 4 22.5 5.45507 22.5 7.25V17.7526C22.5 19.5475 21.0449 21.0026 19.25 21.0026H5.75C3.95507 21.0026 2.5 19.5475 2.5 17.7526V7.25C2.5 5.45507 3.95507 4 5.75 4H19.25ZM19.25 5.5H5.75C4.7835 5.5 4 6.2835 4 7.25V17.7526C4 18.7191 4.7835 19.5026 5.75 19.5026H19.25C20.2165 19.5026 21 18.7191 21 17.7526V7.25C21 6.2835 20.2165 5.5 19.25 5.5ZM8.5146 9.37139C9.1115 9.37139 9.53353 9.45272 10.0168 9.68478C10.3279 9.83421 10.459 10.2076 10.3096 10.5187C10.1602 10.8299 9.78682 10.961 9.47566 10.8116C9.17583 10.6676 8.93601 10.6214 8.5146 10.6214C7.64789 10.6214 7.01104 11.4178 7.01104 12.4938C7.01104 13.5708 7.64873 14.3697 8.5146 14.3697C8.94322 14.3697 9.30607 14.1899 9.49484 13.869L9.501 13.854V13.12L9.12522 13.1207C8.81142 13.1207 8.55164 12.8894 8.507 12.588L8.50022 12.4957C8.50022 12.1819 8.73148 11.9221 9.03286 11.8774L9.12522 11.8707H10.1268C10.4406 11.8707 10.7004 12.1019 10.745 12.4033L10.7518 12.4957L10.7505 14.0433L10.7441 14.0986L10.723 14.1885L10.7025 14.2437C10.3261 15.1338 9.46156 15.6197 8.5146 15.6197C6.88858 15.6197 5.76104 14.207 5.76104 12.4938C5.76104 10.7811 6.88839 9.37139 8.5146 9.37139ZM13.1289 9.49339C13.4427 9.49339 13.7025 9.72465 13.7472 10.026L13.7539 10.1184V14.8805C13.7539 15.2257 13.4741 15.5055 13.1289 15.5055C12.8151 15.5055 12.5554 15.2743 12.5107 14.9729L12.5039 14.8805V10.1184C12.5039 9.77321 12.7838 9.49339 13.1289 9.49339ZM16.1248 9.49339L18.1222 9.50029C18.4673 9.50148 18.7462 9.78227 18.745 10.1274C18.7439 10.4412 18.5118 10.7002 18.2102 10.7438L18.1178 10.7503L16.747 10.745V12.499L17.87 12.4999C18.1838 12.4999 18.4436 12.7311 18.4882 13.0325L18.495 13.1249C18.495 13.4387 18.2637 13.6984 17.9624 13.7431L17.87 13.7499L16.747 13.749L16.7476 14.8644C16.7476 15.1782 16.5163 15.438 16.215 15.4827L16.1226 15.4894C15.8088 15.4894 15.549 15.2582 15.5044 14.9568L15.4976 14.8644V10.1162C15.4987 9.80244 15.7308 9.54345 16.0324 9.49985L16.1248 9.49339Z" fill="black"/>
</svg>
