<?xml version="1.0" standalone="no"?>
<!DOCTYPE svg PUBLIC "-//W3C//DTD SVG 20010904//EN"
 "http://www.w3.org/TR/2001/REC-SVG-20010904/DTD/svg10.dtd">
<svg version="1.0" xmlns="http://www.w3.org/2000/svg"
 width="126.000000pt" height="126.000000pt" viewBox="0 0 126.000000 126.000000"
 preserveAspectRatio="xMidYMid meet">

<g transform="translate(0.000000,126.000000) scale(0.100000,-0.100000)"
fill="#000000" stroke="none">
<path d="M34 1226 l-34 -34 2 -566 3 -566 28 -27 27 -28 570 0 570 0 27 28 28
27 3 566 3 565 -35 35 -34 34 -562 0 -562 0 -34 -34z m905 -286 c56 -16 100
-52 126 -104 41 -83 30 -164 -31 -227 -35 -36 -36 -39 -24 -68 10 -25 18 -31
42 -31 36 0 78 -40 78 -73 0 -13 -9 -36 -21 -51 -20 -25 -25 -27 -97 -24 l-77
3 -50 89 c-27 49 -56 91 -63 94 -9 3 -12 -20 -12 -92 l0 -96 -62 0 c-69 0 -79
4 -97 37 -14 28 -15 344 0 398 32 116 162 181 288 145z m-390 -24 c17 -16 21
-31 21 -82 0 -56 -3 -65 -26 -83 -15 -12 -35 -21 -46 -21 -24 0 -60 19 -71 36
-10 18 -94 19 -100 2 -9 -27 6 -38 49 -38 122 0 210 -51 233 -136 21 -79 -14
-169 -82 -209 -41 -24 -52 -25 -185 -25 -140 0 -141 0 -161 26 -26 33 -29 118
-5 152 34 49 115 46 135 -5 8 -22 13 -24 71 -21 60 3 63 4 63 28 0 24 -4 25
-74 32 -98 10 -154 38 -186 92 -58 99 -5 235 102 264 21 6 84 10 139 9 85 -2
106 -5 123 -21z"/>
<path d="M822 788 c-7 -7 -12 -32 -12 -56 l0 -45 51 5 c27 3 55 10 61 16 14
14 13 59 -2 77 -15 18 -81 20 -98 3z"/>
</g>
</svg>
