<svg width="50" height="50" viewBox="0 0 50 50" fill="none" xmlns="http://www.w3.org/2000/svg">
<path d="M25.0001 27.0834C26.1507 27.0834 27.0834 26.1507 27.0834 25.0001C27.0834 23.8495 26.1507 22.9167 25.0001 22.9167C23.8495 22.9167 22.9167 23.8495 22.9167 25.0001C22.9167 26.1507 23.8495 27.0834 25.0001 27.0834Z" stroke="black" stroke-width="4" stroke-linecap="round" stroke-linejoin="round"/>
<path d="M25.0001 12.4999C26.1507 12.4999 27.0834 11.5672 27.0834 10.4166C27.0834 9.26599 26.1507 8.33325 25.0001 8.33325C23.8495 8.33325 22.9167 9.26599 22.9167 10.4166C22.9167 11.5672 23.8495 12.4999 25.0001 12.4999Z" stroke="black" stroke-width="4" stroke-linecap="round" stroke-linejoin="round"/>
<path d="M25.0001 41.6667C26.1507 41.6667 27.0834 40.7339 27.0834 39.5833C27.0834 38.4327 26.1507 37.5 25.0001 37.5C23.8495 37.5 22.9167 38.4327 22.9167 39.5833C22.9167 40.7339 23.8495 41.6667 25.0001 41.6667Z" stroke="black" stroke-width="4" stroke-linecap="round" stroke-linejoin="round"/>
</svg>
