<svg width="21" height="21" viewBox="0 0 21 21" fill="none" xmlns="http://www.w3.org/2000/svg">
<g clip-path="url(#clip0_187_615)">
<path d="M12.7818 5.33333C13.5957 5.49214 14.3438 5.89021 14.9302 6.47661C15.5166 7.06301 15.9146 7.81105 16.0734 8.625M12.7818 2C14.4728 2.18786 16.0498 2.94515 17.2536 4.14751C18.4575 5.34987 19.2168 6.92584 19.4068 8.61667M18.5734 15.2667V17.7667C18.5744 17.9988 18.5268 18.2285 18.4339 18.4411C18.3409 18.6538 18.2045 18.8447 18.0335 19.0016C17.8625 19.1585 17.6606 19.2779 17.4407 19.3523C17.2209 19.4266 16.9879 19.4542 16.7568 19.4333C14.1925 19.1547 11.7293 18.2785 9.5651 16.875C7.55162 15.5956 5.84454 13.8885 4.5651 11.875C3.15675 9.701 2.2803 7.22583 2.00676 4.65C1.98594 4.41956 2.01333 4.1873 2.08718 3.96802C2.16104 3.74874 2.27974 3.54724 2.43574 3.37635C2.59173 3.20546 2.7816 3.06892 2.99326 2.97543C3.20491 2.88195 3.43371 2.83355 3.6651 2.83333H6.1651C6.56952 2.82935 6.96159 2.97257 7.26823 3.23628C7.57487 3.49999 7.77516 3.86621 7.83176 4.26667C7.93728 5.06672 8.13297 5.85227 8.4151 6.60833C8.52722 6.9066 8.55148 7.23076 8.48502 7.5424C8.41856 7.85404 8.26415 8.14009 8.0401 8.36667L6.98176 9.425C8.16806 11.5113 9.89548 13.2387 11.9818 14.425L13.0401 13.3667C13.2667 13.1426 13.5527 12.9882 13.8644 12.9217C14.176 12.8553 14.5002 12.8795 14.7984 12.9917C15.5545 13.2738 16.34 13.4695 17.1401 13.575C17.5449 13.6321 17.9146 13.836 18.1789 14.1479C18.4432 14.4598 18.5836 14.858 18.5734 15.2667Z" stroke="black" stroke-width="2" stroke-linecap="round" stroke-linejoin="round"/>
</g>
<defs>
<clipPath id="clip0_187_615">
<rect width="20" height="20" fill="white" transform="translate(0.5 0.5)"/>
</clipPath>
</defs>
</svg>
