<?xml version="1.0" standalone="no"?>
<!DOCTYPE svg PUBLIC "-//W3C//DTD SVG 20010904//EN"
 "http://www.w3.org/TR/2001/REC-SVG-20010904/DTD/svg10.dtd">
<svg version="1.0" xmlns="http://www.w3.org/2000/svg"
 width="100.000000pt" height="100.000000pt" viewBox="0 0 100.000000 100.000000"
 preserveAspectRatio="xMidYMid meet">

<g transform="translate(0.000000,100.000000) scale(0.100000,-0.100000)"
fill="#000000" stroke="none">
<path d="M303 864 c-52 -19 -126 -83 -158 -137 -47 -81 -49 -211 -5 -296 43
-85 143 -154 243 -167 52 -7 121 7 185 39 l43 21 103 -103 c82 -82 108 -102
127 -99 16 2 25 11 27 27 3 19 -17 45 -99 127 l-102 103 29 63 c37 82 39 176
4 256 -28 66 -112 144 -176 166 -58 20 -165 20 -221 0z m200 -77 c150 -63 189
-251 78 -370 -90 -98 -252 -95 -336 5 -40 47 -55 89 -55 155 0 93 51 170 140
210 35 16 134 16 173 0z"/>
</g>
</svg>
