<svg width="24" height="25" viewBox="0 0 24 25" fill="none" xmlns="http://www.w3.org/2000/svg">
<path d="M5.69362 12.4997L2.29933 3.7715C2.0631 3.16403 2.65544 2.58309 3.2414 2.78959L3.33375 2.82885L21.3337 11.8288C21.852 12.088 21.8844 12.7975 21.4309 13.1129L21.3337 13.1705L3.33375 22.1705C2.75077 22.462 2.11746 21.926 2.2688 21.3234L2.29933 21.2278L5.69362 12.4997ZM4.4021 5.04007L7.01109 11.7491L13.6387 11.7497C14.0184 11.7497 14.3322 12.0318 14.3818 12.3979L14.3887 12.4997C14.3887 12.8794 14.1065 13.1932 13.7404 13.2428L13.6387 13.2497L7.01109 13.2491L4.4021 19.9593L19.3213 12.4997L4.4021 5.04007Z" fill="black"/>
</svg>
