<?xml version="1.0" standalone="no"?>
<!DOCTYPE svg PUBLIC "-//W3C//DTD SVG 20010904//EN"
 "http://www.w3.org/TR/2001/REC-SVG-20010904/DTD/svg10.dtd">
<svg version="1.0" xmlns="http://www.w3.org/2000/svg"
 width="100.000000pt" height="100.000000pt" viewBox="0 0 100.000000 100.000000"
 preserveAspectRatio="xMidYMid meet">

<g transform="translate(0.000000,100.000000) scale(0.100000,-0.100000)"
fill="#000000" stroke="none">
<path d="M398 979 c-14 -7 -18 -23 -18 -63 0 -47 -3 -54 -27 -65 -24 -11 -29
-9 -62 24 -20 19 -46 35 -57 35 -24 0 -154 -129 -154 -153 0 -9 16 -35 36 -57
35 -39 36 -41 20 -65 -14 -21 -24 -25 -66 -25 -63 0 -70 -13 -70 -120 0 -109
7 -120 74 -120 47 0 54 -3 65 -27 11 -24 9 -29 -24 -62 -19 -20 -35 -45 -35
-55 0 -24 128 -156 152 -156 10 0 36 16 58 36 39 35 41 36 64 20 20 -13 26
-25 28 -68 l3 -53 115 0 115 0 3 56 c3 50 6 58 29 68 24 11 29 9 62 -24 20
-19 45 -35 55 -35 24 0 156 128 156 152 0 10 -16 36 -36 58 -35 39 -36 41 -20
65 14 21 24 25 66 25 63 0 70 13 70 120 0 109 -7 120 -74 120 -47 0 -54 3 -65
27 -11 24 -9 29 24 62 19 20 35 45 35 55 0 25 -129 156 -154 156 -11 0 -37
-16 -58 -37 -36 -35 -37 -36 -62 -19 -22 14 -26 24 -26 66 0 39 -4 52 -19 60
-25 13 -181 13 -203 -1z m182 -87 c0 -58 20 -81 77 -89 33 -4 42 -1 67 26 17
17 35 31 41 31 6 0 33 -22 59 -49 l49 -50 -33 -37 c-28 -32 -31 -43 -27 -76 8
-58 30 -78 89 -78 l48 0 0 -80 0 -80 -48 0 c-58 0 -80 -19 -89 -74 -5 -33 -2
-41 28 -72 l33 -34 -54 -55 -53 -54 -35 31 c-30 26 -41 29 -74 25 -58 -8 -78
-30 -78 -89 l0 -48 -80 0 -80 0 0 48 c0 59 -20 81 -78 89 -33 4 -44 1 -74 -25
l-35 -31 -53 54 -54 55 33 34 c30 31 33 39 28 72 -9 55 -31 74 -89 74 l-48 0
0 80 0 80 48 0 c59 0 81 20 89 78 4 33 1 44 -27 76 l-33 37 49 50 c26 27 53
49 59 49 6 0 24 -14 41 -31 25 -27 34 -30 67 -26 57 8 77 31 77 89 l0 48 80 0
80 0 0 -48z"/>
<path d="M436 670 c-63 -19 -126 -109 -126 -180 0 -43 29 -107 61 -137 97 -89
245 -58 300 62 68 147 -75 302 -235 255z m141 -60 c87 -52 83 -198 -6 -245
-98 -50 -211 16 -211 123 0 85 56 142 140 142 27 0 58 -8 77 -20z"/>
</g>
</svg>
