<?xml version="1.0" standalone="no"?>
<!DOCTYPE svg PUBLIC "-//W3C//DTD SVG 20010904//EN"
 "http://www.w3.org/TR/2001/REC-SVG-20010904/DTD/svg10.dtd">
<svg version="1.0" xmlns="http://www.w3.org/2000/svg"
 width="100.000000pt" height="100.000000pt" viewBox="0 0 100.000000 100.000000"
 preserveAspectRatio="xMidYMid meet">

<g transform="translate(0.000000,100.000000) scale(0.100000,-0.100000)"
fill="#000000" stroke="none">
<path d="M593 903 c-16 -6 -17 -55 -1 -71 8 -8 47 -12 107 -12 53 0 103 -5
111 -10 13 -8 15 -56 18 -312 3 -362 13 -338 -128 -338 -107 0 -120 -4 -120
-39 0 -46 15 -51 139 -51 127 1 150 8 182 56 18 27 19 50 19 362 0 278 -2 338
-15 362 -25 49 -60 60 -187 59 -62 0 -119 -3 -125 -6z"/>
<path d="M397 723 c-18 -17 -1 -45 73 -118 l81 -80 -223 -5 -223 -5 0 -25 0
-25 223 -5 223 -5 -81 -80 c-79 -78 -95 -110 -64 -122 19 -7 244 212 244 237
0 17 -219 240 -236 240 -6 0 -14 -3 -17 -7z"/>
</g>
</svg>
